<svg xmlns="http://www.w3.org/2000/svg" xmlns:xlink="http://www.w3.org/1999/xlink" width="600" zoomAndPan="magnify" viewBox="0 0 450 149.999998" height="200" preserveAspectRatio="xMidYMid meet" version="1.0"><defs><g/></defs><g fill="#ffffff" fill-opacity="1"><g transform="translate(2.223737, 106.997877)"><g><path d="M 42.296875 0 C 41.523438 0 41.003906 -0.382812 40.734375 -1.15625 L 38.40625 -8.859375 C 38.351562 -9.128906 38.1875 -9.265625 37.90625 -9.265625 L 17.625 -9.265625 C 17.351562 -9.265625 17.191406 -9.128906 17.140625 -8.859375 L 14.8125 -1.15625 C 14.539062 -0.382812 14.019531 0 13.25 0 L 3.640625 0 C 3.140625 0 2.78125 -0.148438 2.5625 -0.453125 C 2.34375 -0.753906 2.316406 -1.128906 2.484375 -1.578125 L 20.109375 -56.78125 C 20.390625 -57.5625 20.914062 -57.953125 21.6875 -57.953125 L 33.859375 -57.953125 C 34.628906 -57.953125 35.15625 -57.5625 35.4375 -56.78125 L 53.0625 -1.578125 C 53.113281 -1.460938 53.140625 -1.296875 53.140625 -1.078125 C 53.140625 -0.742188 53.03125 -0.476562 52.8125 -0.28125 C 52.59375 -0.09375 52.289062 0 51.90625 0 Z M 20.03125 -18.875 C 19.976562 -18.488281 20.117188 -18.296875 20.453125 -18.296875 L 35.09375 -18.296875 C 35.425781 -18.296875 35.566406 -18.488281 35.515625 -18.875 L 28.0625 -44.125 C 28.007812 -44.34375 27.910156 -44.453125 27.765625 -44.453125 C 27.628906 -44.453125 27.507812 -44.34375 27.40625 -44.125 Z M 20.03125 -18.875 "/></g></g></g><g fill="#ffffff" fill-opacity="1"><g transform="translate(57.762875, 106.997877)"><g><path d="M 6.546875 0 C 5.597656 0 5.125 -0.46875 5.125 -1.40625 L 5.125 -56.546875 C 5.125 -57.484375 5.597656 -57.953125 6.546875 -57.953125 L 15.390625 -57.953125 C 16.109375 -57.953125 16.660156 -57.644531 17.046875 -57.03125 L 29.0625 -37.671875 C 29.164062 -37.503906 29.285156 -37.421875 29.421875 -37.421875 C 29.566406 -37.421875 29.664062 -37.503906 29.71875 -37.671875 L 41.890625 -57.03125 C 42.273438 -57.644531 42.828125 -57.953125 43.546875 -57.953125 L 52.40625 -57.953125 C 53.34375 -57.953125 53.8125 -57.484375 53.8125 -56.546875 L 53.8125 -1.40625 C 53.8125 -0.46875 53.34375 0 52.40625 0 L 43.546875 0 C 42.609375 0 42.140625 -0.46875 42.140625 -1.40625 L 42.140625 -37.25 C 42.140625 -37.46875 42.066406 -37.601562 41.921875 -37.65625 C 41.785156 -37.71875 41.664062 -37.640625 41.5625 -37.421875 L 33.1875 -23.765625 C 32.800781 -23.148438 32.253906 -22.84375 31.546875 -22.84375 L 27.3125 -22.84375 C 26.59375 -22.84375 26.039062 -23.148438 25.65625 -23.765625 L 17.390625 -37.421875 C 17.273438 -37.640625 17.144531 -37.71875 17 -37.65625 C 16.863281 -37.601562 16.796875 -37.46875 16.796875 -37.25 L 16.796875 -1.40625 C 16.796875 -0.46875 16.328125 0 15.390625 0 Z M 6.546875 0 "/></g></g></g><g fill="#ffffff" fill-opacity="1"><g transform="translate(116.612851, 106.997877)"><g><path d="M 42.296875 0 C 41.523438 0 41.003906 -0.382812 40.734375 -1.15625 L 38.40625 -8.859375 C 38.351562 -9.128906 38.1875 -9.265625 37.90625 -9.265625 L 17.625 -9.265625 C 17.351562 -9.265625 17.191406 -9.128906 17.140625 -8.859375 L 14.8125 -1.15625 C 14.539062 -0.382812 14.019531 0 13.25 0 L 3.640625 0 C 3.140625 0 2.78125 -0.148438 2.5625 -0.453125 C 2.34375 -0.753906 2.316406 -1.128906 2.484375 -1.578125 L 20.109375 -56.78125 C 20.390625 -57.5625 20.914062 -57.953125 21.6875 -57.953125 L 33.859375 -57.953125 C 34.628906 -57.953125 35.15625 -57.5625 35.4375 -56.78125 L 53.0625 -1.578125 C 53.113281 -1.460938 53.140625 -1.296875 53.140625 -1.078125 C 53.140625 -0.742188 53.03125 -0.476562 52.8125 -0.28125 C 52.59375 -0.09375 52.289062 0 51.90625 0 Z M 20.03125 -18.875 C 19.976562 -18.488281 20.117188 -18.296875 20.453125 -18.296875 L 35.09375 -18.296875 C 35.425781 -18.296875 35.566406 -18.488281 35.515625 -18.875 L 28.0625 -44.125 C 28.007812 -44.34375 27.910156 -44.453125 27.765625 -44.453125 C 27.628906 -44.453125 27.507812 -44.34375 27.40625 -44.125 Z M 20.03125 -18.875 "/></g></g></g><g fill="#ffffff" fill-opacity="1"><g transform="translate(172.15199, 106.997877)"><g><path d="M 26.078125 0.65625 C 21.828125 0.65625 18.085938 -0.164062 14.859375 -1.8125 C 11.628906 -3.46875 9.117188 -5.800781 7.328125 -8.8125 C 5.535156 -11.820312 4.640625 -15.285156 4.640625 -19.203125 L 4.640625 -56.546875 C 4.640625 -57.484375 5.109375 -57.953125 6.046875 -57.953125 L 14.90625 -57.953125 C 15.84375 -57.953125 16.3125 -57.484375 16.3125 -56.546875 L 16.3125 -19.125 C 16.3125 -16.195312 17.207031 -13.835938 19 -12.046875 C 20.789062 -10.253906 23.148438 -9.359375 26.078125 -9.359375 C 29.003906 -9.359375 31.363281 -10.253906 33.15625 -12.046875 C 34.945312 -13.835938 35.84375 -16.195312 35.84375 -19.125 L 35.84375 -56.546875 C 35.84375 -57.484375 36.3125 -57.953125 37.25 -57.953125 L 46.109375 -57.953125 C 47.046875 -57.953125 47.515625 -57.484375 47.515625 -56.546875 L 47.515625 -19.203125 C 47.515625 -15.285156 46.617188 -11.820312 44.828125 -8.8125 C 43.035156 -5.800781 40.523438 -3.46875 37.296875 -1.8125 C 34.066406 -0.164062 30.328125 0.65625 26.078125 0.65625 Z M 26.078125 0.65625 "/></g></g></g><g fill="#ffffff" fill-opacity="1"><g transform="translate(224.214767, 106.997877)"><g><path d="M 37.171875 0 C 36.453125 0 35.898438 -0.359375 35.515625 -1.078125 L 25.328125 -23.59375 C 25.222656 -23.863281 25.03125 -24 24.75 -24 L 17.21875 -24 C 16.882812 -24 16.71875 -23.835938 16.71875 -23.515625 L 16.71875 -1.40625 C 16.71875 -0.46875 16.25 0 15.3125 0 L 6.453125 0 C 5.515625 0 5.046875 -0.46875 5.046875 -1.40625 L 5.046875 -56.625 C 5.046875 -57.5625 5.515625 -58.03125 6.453125 -58.03125 L 29.71875 -58.03125 C 33.25 -58.03125 36.351562 -57.296875 39.03125 -55.828125 C 41.707031 -54.367188 43.773438 -52.3125 45.234375 -49.65625 C 46.703125 -47.007812 47.4375 -43.976562 47.4375 -40.5625 C 47.4375 -36.8125 46.492188 -33.582031 44.609375 -30.875 C 42.734375 -28.175781 40.144531 -26.273438 36.84375 -25.171875 C 36.675781 -25.109375 36.5625 -25.007812 36.5 -24.875 C 36.445312 -24.738281 36.476562 -24.613281 36.59375 -24.5 L 47.515625 -1.65625 C 47.679688 -1.4375 47.765625 -1.1875 47.765625 -0.90625 C 47.765625 -0.632812 47.65625 -0.414062 47.4375 -0.25 C 47.21875 -0.0820312 46.910156 0 46.515625 0 Z M 17.21875 -47.9375 C 16.882812 -47.9375 16.71875 -47.769531 16.71875 -47.4375 L 16.71875 -33.53125 C 16.71875 -33.195312 16.882812 -33.03125 17.21875 -33.03125 L 27.984375 -33.03125 C 30.296875 -33.03125 32.179688 -33.707031 33.640625 -35.0625 C 35.109375 -36.414062 35.84375 -38.191406 35.84375 -40.390625 C 35.84375 -42.597656 35.109375 -44.40625 33.640625 -45.8125 C 32.179688 -47.226562 30.296875 -47.9375 27.984375 -47.9375 Z M 17.21875 -47.9375 "/></g></g></g><g fill="#ffffff" fill-opacity="1"><g transform="translate(275.035978, 106.997877)"><g><path d="M 6.453125 0 C 5.515625 0 5.046875 -0.46875 5.046875 -1.40625 L 5.046875 -56.546875 C 5.046875 -57.484375 5.515625 -57.953125 6.453125 -57.953125 L 15.3125 -57.953125 C 16.25 -57.953125 16.71875 -57.484375 16.71875 -56.546875 L 16.71875 -1.40625 C 16.71875 -0.46875 16.25 0 15.3125 0 Z M 6.453125 0 "/></g></g></g><g fill="#248080" fill-opacity="1"><g transform="translate(296.801213, 106.997877)"><g><path d="M 6.453125 0 C 5.515625 0 5.046875 -0.46875 5.046875 -1.40625 L 5.046875 -56.546875 C 5.046875 -57.484375 5.515625 -57.953125 6.453125 -57.953125 L 26.734375 -57.953125 C 30.878906 -57.953125 34.507812 -57.21875 37.625 -55.75 C 40.738281 -54.289062 43.148438 -52.234375 44.859375 -49.578125 C 46.578125 -46.929688 47.4375 -43.867188 47.4375 -40.390625 L 47.4375 -17.546875 C 47.4375 -14.066406 46.578125 -11.003906 44.859375 -8.359375 C 43.148438 -5.710938 40.738281 -3.65625 37.625 -2.1875 C 34.507812 -0.726562 30.878906 0 26.734375 0 Z M 16.71875 -10.515625 C 16.71875 -10.179688 16.882812 -10.015625 17.21875 -10.015625 L 27.15625 -10.015625 C 29.6875 -10.015625 31.738281 -10.867188 33.3125 -12.578125 C 34.882812 -14.296875 35.703125 -16.585938 35.765625 -19.453125 L 35.765625 -38.5 C 35.765625 -41.363281 34.976562 -43.648438 33.40625 -45.359375 C 31.832031 -47.078125 29.71875 -47.9375 27.0625 -47.9375 L 17.21875 -47.9375 C 16.882812 -47.9375 16.71875 -47.769531 16.71875 -47.4375 Z M 16.71875 -10.515625 "/></g></g></g><g fill="#ffffff" fill-opacity="1"><g transform="translate(347.947069, 106.997877)"><g><path d="M 45.28125 -49.34375 C 45.28125 -48.40625 44.8125 -47.9375 43.875 -47.9375 L 17.21875 -47.9375 C 16.882812 -47.9375 16.71875 -47.769531 16.71875 -47.4375 L 16.71875 -34.765625 C 16.71875 -34.429688 16.882812 -34.265625 17.21875 -34.265625 L 34.515625 -34.265625 C 35.453125 -34.265625 35.921875 -33.796875 35.921875 -32.859375 L 35.921875 -25.65625 C 35.921875 -24.71875 35.453125 -24.25 34.515625 -24.25 L 17.21875 -24.25 C 16.882812 -24.25 16.71875 -24.085938 16.71875 -23.765625 L 16.71875 -10.515625 C 16.71875 -10.179688 16.882812 -10.015625 17.21875 -10.015625 L 43.875 -10.015625 C 44.8125 -10.015625 45.28125 -9.546875 45.28125 -8.609375 L 45.28125 -1.40625 C 45.28125 -0.46875 44.8125 0 43.875 0 L 6.453125 0 C 5.515625 0 5.046875 -0.46875 5.046875 -1.40625 L 5.046875 -56.546875 C 5.046875 -57.484375 5.515625 -57.953125 6.453125 -57.953125 L 43.875 -57.953125 C 44.8125 -57.953125 45.28125 -57.484375 45.28125 -56.546875 Z M 45.28125 -49.34375 "/></g></g></g><g fill="#ffffff" fill-opacity="1"><g transform="translate(396.285164, 106.997877)"><g><path d="M 20.859375 0 C 20.085938 0 19.5625 -0.382812 19.28125 -1.15625 L 2.484375 -56.375 C 2.429688 -56.488281 2.40625 -56.65625 2.40625 -56.875 C 2.40625 -57.59375 2.816406 -57.953125 3.640625 -57.953125 L 13.25 -57.953125 C 14.019531 -57.953125 14.539062 -57.5625 14.8125 -56.78125 L 25.65625 -16.890625 C 25.71875 -16.671875 25.828125 -16.5625 25.984375 -16.5625 C 26.148438 -16.5625 26.265625 -16.671875 26.328125 -16.890625 L 37 -56.703125 C 37.28125 -57.535156 37.804688 -57.953125 38.578125 -57.953125 L 47.9375 -57.953125 C 48.425781 -57.953125 48.78125 -57.796875 49 -57.484375 C 49.226562 -57.179688 49.257812 -56.8125 49.09375 -56.375 L 32.03125 -1.15625 C 31.757812 -0.382812 31.238281 0 30.46875 0 Z M 20.859375 0 "/></g></g></g></svg>